<?xml version="1.0" standalone="no"?>
<!DOCTYPE svg PUBLIC "-//W3C//DTD SVG 20010904//EN"
 "http://www.w3.org/TR/2001/REC-SVG-20010904/DTD/svg10.dtd">
<svg version="1.0" xmlns="http://www.w3.org/2000/svg"
 width="2692.000000pt" height="437.000000pt" viewBox="0 0 2692.000000 437.000000"
 preserveAspectRatio="xMidYMid meet">

<g transform="translate(0.000000,437.000000) scale(0.100000,-0.100000)"
fill="#000000" stroke="none">
<path d="M15410 3755 c-483 -80 -842 -386 -995 -849 -61 -186 -70 -261 -70
-631 0 -370 9 -445 70 -631 148 -449 486 -747 953 -841 123 -25 414 -25 532 0
549 116 921 513 1005 1072 21 142 21 658 -1 802 -22 150 -56 261 -123 398
-172 351 -458 575 -851 667 -114 26 -398 33 -520 13z m390 -407 c153 -25 321
-116 426 -231 108 -119 189 -290 219 -464 21 -120 21 -635 0 -756 -33 -189
-115 -355 -235 -477 -116 -118 -257 -192 -424 -221 -99 -17 -302 -6 -396 21
-268 77 -476 299 -549 586 -32 123 -41 231 -41 469 0 238 9 346 41 469 88 344
361 584 700 615 93 8 161 5 259 -11z"/>
<path d="M22487 3756 c-497 -88 -844 -448 -943 -981 -17 -87 -19 -152 -19
-500 0 -343 3 -414 18 -495 104 -552 478 -920 1005 -991 112 -15 331 -5 442
20 108 24 202 60 307 116 259 137 462 393 542 683 l20 72 -236 -2 -235 -3 -22
-61 c-64 -176 -216 -322 -408 -392 -67 -25 -85 -27 -228 -27 -174 0 -235 12
-355 70 -172 83 -304 255 -367 480 -22 78 -23 94 -23 535 0 445 1 457 23 539
99 359 335 542 697 542 196 0 360 -58 488 -172 68 -60 144 -172 176 -257 l23
-62 234 0 233 0 -20 73 c-52 187 -135 339 -253 465 -98 103 -171 160 -279 217
-104 55 -198 91 -307 117 -112 26 -400 33 -513 14z"/>
<path d="M180 2873 c0 -478 -3 -1135 -7 -1461 l-6 -592 206 0 207 0 2 1102 3
1103 365 -610 365 -610 130 -3 130 -2 360 612 360 613 3 -1103 2 -1102 225 0
225 0 0 1460 0 1460 -243 0 -243 0 -389 -666 c-215 -367 -394 -673 -400 -680
-8 -11 -110 153 -418 666 l-408 680 -235 0 -234 0 0 -867z"/>
<path d="M3497 3733 c-4 -3 -7 -660 -7 -1460 l0 -1453 985 0 985 0 0 205 0
205 -765 0 -765 0 0 465 0 465 620 0 620 0 0 200 0 200 -620 0 -620 0 0 385 0
385 755 0 755 0 -2 203 -3 202 -966 3 c-531 1 -969 -1 -972 -5z"/>
<path d="M6020 3535 l0 -205 445 0 445 0 0 -1255 0 -1255 220 0 220 0 0 1255
0 1255 440 0 440 0 0 205 0 205 -1105 0 -1105 0 0 -205z"/>
<path d="M9315 3708 c-10 -25 -1073 -2754 -1116 -2866 l-9 -22 221 2 221 3 49
130 c27 72 86 226 131 343 l81 212 626 0 626 0 131 -342 130 -343 243 -3 c229
-2 243 -1 237 15 -4 10 -259 667 -569 1461 l-562 1442 -213 0 -213 0 -14 -32z
m446 -1183 l227 -600 -466 -3 c-256 -1 -467 -1 -468 1 -3 3 433 1153 457 1207
9 19 13 21 17 10 3 -8 108 -285 233 -615z"/>
<path d="M11497 3734 c-4 -4 -7 -662 -7 -1461 l0 -1454 713 4 c684 3 715 4
799 25 289 70 482 210 598 433 65 125 83 208 84 384 0 170 -12 230 -72 355
-28 58 -56 95 -127 165 -75 76 -106 99 -188 140 -78 39 -95 52 -83 60 9 5 43
26 77 45 123 70 225 195 270 332 21 64 24 91 24 228 0 148 -2 159 -31 241 -90
252 -289 411 -599 480 -97 21 -122 22 -775 26 -371 3 -678 1 -683 -3z m1341
-427 c129 -34 217 -98 263 -193 32 -66 40 -227 15 -302 -34 -100 -110 -174
-221 -212 -90 -31 -225 -40 -605 -40 l-360 0 0 386 0 386 423 -5 c350 -3 433
-7 485 -20z m-73 -1157 c235 -26 375 -118 438 -287 31 -86 31 -284 -1 -364
-58 -145 -158 -220 -340 -255 -56 -11 -175 -14 -503 -14 l-429 0 0 465 0 465
373 0 c204 0 413 -5 462 -10z"/>
<path d="M17607 3733 c-4 -3 -7 -660 -7 -1460 l0 -1453 855 0 855 0 0 205 0
205 -635 0 -635 0 0 1255 0 1255 -213 0 c-118 0 -217 -3 -220 -7z"/>
<path d="M19987 3733 c-4 -3 -7 -82 -7 -175 l0 -168 140 0 140 0 -2 -1112 -3
-1113 -152 -3 -153 -3 0 -169 0 -170 525 0 525 0 0 170 0 169 -152 3 -153 3
-3 1113 -2 1112 140 0 140 0 -2 173 -3 172 -486 3 c-267 1 -489 -1 -492 -5z"/>
<path d="M25345 3708 c-10 -25 -1073 -2754 -1116 -2866 l-9 -22 221 2 221 3
49 130 c27 72 86 226 131 343 l81 212 626 0 626 0 131 -342 130 -343 243 -3
c229 -2 243 -1 237 15 -4 10 -259 667 -569 1461 l-562 1442 -213 0 -213 0 -14
-32z m446 -1183 l227 -600 -466 -3 c-256 -1 -467 -1 -468 1 -3 3 433 1153 457
1207 9 19 13 21 17 10 3 -8 108 -285 233 -615z"/>
</g>
</svg>
